<?xml version="1.0" encoding="iso-8859-1"?>
<!-- Generator: Adobe Illustrator 18.1.1, SVG Export Plug-In . SVG Version: 6.00 Build 0)  -->
<svg version="1.1" id="Capa_1" xmlns="http://www.w3.org/2000/svg" xmlns:xlink="http://www.w3.org/1999/xlink" x="0px" y="0px"
	 viewBox="0 0 270 270" style="enable-background:new 0 0 270 270;" xml:space="preserve">
<g>
	<path id="path23484" d="M135,0c-28.29,0-53.941,5.669-72.947,15.172S30,38.491,30,55v160c0,16.509,13.046,30.325,32.053,39.828
		S106.71,270,135,270s53.941-5.669,72.947-15.172S240,231.509,240,215V55c0-16.509-13.046-30.325-32.053-39.828S163.29,0,135,0z
		 M135,10c26.939,0,51.288,5.524,68.475,14.117S230,43.895,230,55s-9.339,22.29-26.525,30.883S161.939,100,135,100
		s-51.288-5.524-68.475-14.117S40,66.105,40,55c0-11.105,9.339-22.29,26.525-30.883S108.061,10,135,10z M135,17.5
		c-25.923,0-49.3,5.415-65.119,13.324C54.042,38.744,47.5,47.798,47.5,55c-0.02,1.381,1.084,2.516,2.465,2.535
		c1.381,0.02,2.516-1.084,2.535-2.465c0-0.024,0-0.047,0-0.071c0-3.795,4.698-12.246,19.615-19.705
		C86.977,27.864,109.78,22.5,135,22.5c1.381,0.02,2.516-1.084,2.535-2.465s-1.084-2.516-2.465-2.535
		C135.047,17.5,135.024,17.5,135,17.5z M40,78.807c5.559,6.176,13.152,11.571,22.053,16.021C81.059,104.331,106.71,110,135,110
		s53.941-5.669,72.947-15.172c8.901-4.45,16.494-9.846,22.053-16.021v29.527c0,11.105-9.339,22.29-26.525,30.883
		S161.939,153.334,135,153.334s-51.288-5.524-68.475-14.117S40,119.439,40,108.334V78.807z M40,132.139
		c5.559,6.175,13.152,11.571,22.053,16.021c19.006,9.503,44.658,15.174,72.947,15.174s53.941-5.671,72.947-15.174
		c8.901-4.45,16.494-9.846,22.053-16.021v29.527c0,11.105-9.339,22.29-26.525,30.883S161.939,206.666,135,206.666
		s-51.288-5.524-68.475-14.117S40,172.771,40,161.666V132.139z M40,185.473c5.559,6.176,13.152,11.571,22.053,16.021
		c19.006,9.503,44.658,15.172,72.947,15.172s53.941-5.669,72.947-15.172c8.901-4.45,16.494-9.846,22.053-16.021V215
		c0,11.105-9.339,22.29-26.525,30.883C186.288,254.476,161.939,260,135,260s-51.288-5.524-68.475-14.117
		C49.339,237.29,40,226.105,40,215V185.473z"/>
</g>
<g>
</g>
<g>
</g>
<g>
</g>
<g>
</g>
<g>
</g>
<g>
</g>
<g>
</g>
<g>
</g>
<g>
</g>
<g>
</g>
<g>
</g>
<g>
</g>
<g>
</g>
<g>
</g>
<g>
</g>
</svg>
