<?xml version="1.0" encoding="utf-8"?>
<!-- Generator: Adobe Illustrator 19.2.0, SVG Export Plug-In . SVG Version: 6.00 Build 0)  -->
<svg version="1.1" id="图层_1" xmlns="http://www.w3.org/2000/svg" xmlns:xlink="http://www.w3.org/1999/xlink" x="0px" y="0px"
	 viewBox="0 0 32 32" style="enable-background:new 0 0 32 32;" xml:space="preserve">
<title></title>
<g id="Layer_2">
	<path d="M30,20.7l-4-12C25.8,8.3,25.4,8,25,8h-8V3c0-0.6-0.4-1-1-1s-1,0.4-1,1v5H7C6.6,8,6.2,8.3,6.1,8.7l-4,12v0.1
		C2,20.9,2,20.9,2,21v8c0,0.6,0.4,1,1,1h26c0.6,0,1-0.4,1-1v-8C30,20.9,30,20.9,30,20.7L30,20.7z M7.7,10H15v7l-2.4-1.8
		c-0.4-0.3-1.1-0.2-1.4,0.2s-0.2,1.1,0.2,1.4l0,0l4,3l0.1,0.1h0.1h0.1c0.1,0.1,0.2,0.1,0.4,0.1l0,0c0.1,0,0.2,0,0.4-0.1h0.1h0.1
		l0.1-0.1l4-3c0.4-0.3,0.5-1,0.2-1.4s-1-0.5-1.4-0.2L17,17v-7h7.3l3.3,10H21c-0.6,0-1,0.4-1,1v3h-8v-3c0-0.6-0.4-1-1-1H4.4L7.7,10z
		 M28,28H4v-6h6v3c0,0.6,0.4,1,1,1h10c0.6,0,1-0.4,1-1v-3h6V28z"/>
</g>
</svg>
