<?xml version="1.0" encoding="utf-8"?>
<!-- Generator: Adobe Illustrator 19.2.0, SVG Export Plug-In . SVG Version: 6.00 Build 0)  -->
<svg version="1.1" id="图层_1" xmlns="http://www.w3.org/2000/svg" xmlns:xlink="http://www.w3.org/1999/xlink" x="0px" y="0px"
	 viewBox="0 0 32 32" style="enable-background:new 0 0 32 32;" xml:space="preserve">
<title></title>
<g id="Layer_2">
	<path d="M16,2C8.3,2,2,8.3,2,16s6.3,14,14,14s14-6.3,14-14S23.7,2,16,2z M17,28v-1c0-0.6-0.4-1-1-1s-1,0.4-1,1v1
		C9.2,27.5,4.5,22.8,4.1,17H5c0.6,0,1-0.4,1-1s-0.4-1-1-1H4.1C4.5,9.2,9.2,4.5,15,4.1V5c0,0.6,0.4,1,1,1s1-0.4,1-1V4.1
		C22.8,4.5,27.5,9.2,28,15h-1c-0.6,0-1,0.4-1,1s0.4,1,1,1h1C27.5,22.8,22.8,27.5,17,28z"/>
	<path d="M16,9c-0.6,0-1,0.4-1,1v5h-4c-0.6,0-1,0.4-1,1s0.4,1,1,1h5c0.6,0,1-0.4,1-1v-6C17,9.4,16.6,9,16,9z"/>
</g>
</svg>
